<svg width="24" xmlns="http://www.w3.org/2000/svg" height="24" fill="none"><g class="frame-container-wrapper"><g class="frame-container-blur"><g class="frame-container-shadows"><g class="fills"><rect rx="0" ry="0" width="24" height="24" transform="matrix(1.000000, 0.000000, 0.000000, 1.000000, 0.000000, 0.000000)" class="frame-background"/></g><g class="frame-children"><path d="M2.000,12.000L22.000,12.000" style="fill: none;" class="fills"/><g stroke-linecap="round" stroke-linejoin="round" class="strokes"><path d="M2.000,12.000L22.000,12.000" style="fill: none; stroke-width: 2; stroke: rgb(0, 0, 0); stroke-opacity: 1;" class="stroke-shape"/></g><path d="M10.000,16.000L10.000,20.000C10.000,21.105,9.105,22.000,8.000,22.000L6.000,22.000C4.895,22.000,4.000,21.105,4.000,20.000L4.000,16.000" style="fill: none;" class="fills"/><g stroke-linecap="round" stroke-linejoin="round" class="strokes"><path d="M10.000,16.000L10.000,20.000C10.000,21.105,9.105,22.000,8.000,22.000L6.000,22.000C4.895,22.000,4.000,21.105,4.000,20.000L4.000,16.000" style="fill: none; stroke-width: 2; stroke: rgb(0, 0, 0); stroke-opacity: 1;" class="stroke-shape"/></g><path d="M10.000,8.000L10.000,4.000C10.000,2.895,9.105,2.000,8.000,2.000L6.000,2.000C4.895,2.000,4.000,2.895,4.000,4.000L4.000,8.000" style="fill: none;" class="fills"/><g stroke-linecap="round" stroke-linejoin="round" class="strokes"><path d="M10.000,8.000L10.000,4.000C10.000,2.895,9.105,2.000,8.000,2.000L6.000,2.000C4.895,2.000,4.000,2.895,4.000,4.000L4.000,8.000" style="fill: none; stroke-width: 2; stroke: rgb(0, 0, 0); stroke-opacity: 1;" class="stroke-shape"/></g><path d="M20.000,16.000L20.000,17.000C20.000,18.105,19.105,19.000,18.000,19.000L16.000,19.000C14.895,19.000,14.000,18.105,14.000,17.000L14.000,16.000" style="fill: none;" class="fills"/><g stroke-linecap="round" stroke-linejoin="round" class="strokes"><path d="M20.000,16.000L20.000,17.000C20.000,18.105,19.105,19.000,18.000,19.000L16.000,19.000C14.895,19.000,14.000,18.105,14.000,17.000L14.000,16.000" style="fill: none; stroke-width: 2; stroke: rgb(0, 0, 0); stroke-opacity: 1;" class="stroke-shape"/></g><path d="M14.000,8.000L14.000,7.000C14.000,5.900,14.900,5.000,16.000,5.000L18.000,5.000C19.105,5.000,20.000,5.895,20.000,7.000L20.000,8.000" style="fill: none;" class="fills"/><g stroke-linecap="round" stroke-linejoin="round" class="strokes"><path d="M14.000,8.000L14.000,7.000C14.000,5.900,14.900,5.000,16.000,5.000L18.000,5.000C19.105,5.000,20.000,5.895,20.000,7.000L20.000,8.000" style="fill: none; stroke-width: 2; stroke: rgb(0, 0, 0); stroke-opacity: 1;" class="stroke-shape"/></g></g></g></g></g></svg>