<svg width="24" xmlns="http://www.w3.org/2000/svg" height="24" fill="none"><g class="frame-container-wrapper"><g class="frame-container-blur"><g class="frame-container-shadows"><g class="fills"><rect rx="0" ry="0" width="24" height="24" transform="matrix(1.000000, 0.000000, 0.000000, 1.000000, 0.000000, 0.000000)" class="frame-background"/></g><g class="frame-children"><rect width="14" height="14" x="8" transform="matrix(1.000000, 0.000000, 0.000000, 1.000000, 0.000000, 0.000000)" style="fill: none;" ry="2" rx="2" y="8" class="fills"/><g stroke-linejoin="round" stroke-linecap="round" class="strokes"><rect rx="2" ry="2" x="8" y="8" transform="matrix(1.000000, 0.000000, 0.000000, 1.000000, 0.000000, 0.000000)" width="14" height="14" style="fill: none; stroke-width: 2; stroke: rgb(0, 0, 0); stroke-opacity: 1;" class="stroke-shape"/></g><path d="M4.000,16.000C2.900,16.000,2.000,15.100,2.000,14.000L2.000,4.000C2.000,2.900,2.900,2.000,4.000,2.000L14.000,2.000C15.100,2.000,16.000,2.900,16.000,4.000" style="fill: none;" class="fills"/><g stroke-linecap="round" stroke-linejoin="round" class="strokes"><path d="M4.000,16.000C2.900,16.000,2.000,15.100,2.000,14.000L2.000,4.000C2.000,2.900,2.900,2.000,4.000,2.000L14.000,2.000C15.100,2.000,16.000,2.900,16.000,4.000" style="fill: none; stroke-width: 2; stroke: rgb(0, 0, 0); stroke-opacity: 1;" class="stroke-shape"/></g></g></g></g></g></svg>