<?xml version="1.0" encoding="UTF-8" standalone="no"?>
<!DOCTYPE svg PUBLIC "-//W3C//DTD SVG 1.1//EN" "http://www.w3.org/Graphics/SVG/1.1/DTD/svg11.dtd">
<svg width="100%" height="100%" viewBox="0 0 36 40" version="1.1" xmlns="http://www.w3.org/2000/svg" xmlns:xlink="http://www.w3.org/1999/xlink" xml:space="preserve" xmlns:serif="http://www.serif.com/" style="fill-rule:evenodd;clip-rule:evenodd;stroke-linecap:round;stroke-linejoin:round;stroke-miterlimit:1.5;">
    <g transform="matrix(1,0,0,1,-268.083,-498.615)">
        <path d="M282.118,523.24C281.195,520.222 277.013,515.111 275.044,513.419C274.945,513.334 273.04,511.481 270.881,511.072C270.503,511 270.557,510.899 270.23,510.617C270.393,510.469 270.498,510.265 270.661,510.117C270.667,510.112 271.728,509.793 272.892,509.882C277.366,510.222 281.733,513.812 284.248,517.571C285.167,515.396 286.308,512.985 287.583,510.872C290.112,506.679 294.107,501.703 300.722,500.449C300.795,500.435 300.873,500.382 300.942,500.409C301.254,500.529 301.195,500.632 301.505,500.752C301.344,500.9 301.323,501.163 301.162,501.312C300.923,501.533 296.197,502.223 292.169,508.513C289.34,512.929 287.609,518.8 286.423,523.234C286.435,523.896 286.318,524.489 286.055,524.984C284.748,527.441 281.627,526.228 281.897,524.005C281.905,523.937 281.981,523.667 282.118,523.24Z"/>
        <path d="M284.811,524.256L293.701,517.917" style="fill:none;stroke:black;stroke-width:0.93px;"/>
        <g transform="matrix(1,0,0,1,2.25866,2.12231)">
            <path d="M282.229,522.133L272.651,520.59" style="fill:none;stroke:black;stroke-width:0.93px;"/>
        </g>
        <g transform="matrix(0.282308,0,0,0.282308,215.263,368.353)">
            <circle cx="283.98" cy="524.256" r="7.468" style="fill:white;stroke:black;stroke-width:3.29px;"/>
        </g>
        <g transform="matrix(0.282308,0,0,0.282308,192.632,374.146)">
            <circle cx="283.98" cy="524.256" r="7.468" style="fill:white;stroke:black;stroke-width:3.29px;"/>
        </g>
        <g transform="matrix(0.356531,0,0,0.356531,183.24,337.342)">
            <circle cx="283.98" cy="524.256" r="7.468" style="fill:white;stroke:black;stroke-width:2.61px;"/>
        </g>
        <g transform="matrix(0.621288,0,0,0.621288,99.9044,195.527)">
            <text x="270.693px" y="548.596px" style="font-family:'OpenSansRoman-Regular', 'Open Sans';font-size:12px;">vect</text>
            <g transform="matrix(12,0,0,12,293.451,548.596)">
                <path d="M0.594,-0.278C0.594,-0.232 0.588,-0.191 0.575,-0.155C0.563,-0.119 0.544,-0.089 0.52,-0.064C0.496,-0.04 0.467,-0.022 0.433,-0.009C0.398,0.003 0.36,0.01 0.317,0.01C0.277,0.01 0.24,0.003 0.207,-0.009C0.173,-0.022 0.144,-0.04 0.12,-0.064C0.095,-0.089 0.076,-0.119 0.062,-0.155C0.049,-0.191 0.042,-0.232 0.042,-0.278C0.042,-0.339 0.053,-0.391 0.075,-0.433C0.098,-0.475 0.13,-0.508 0.171,-0.53C0.213,-0.552 0.262,-0.563 0.32,-0.563C0.373,-0.563 0.42,-0.552 0.461,-0.53C0.503,-0.508 0.535,-0.475 0.559,-0.433C0.582,-0.391 0.594,-0.339 0.594,-0.278ZM0.236,-0.278C0.236,-0.246 0.239,-0.22 0.244,-0.198C0.25,-0.176 0.259,-0.16 0.271,-0.149C0.283,-0.137 0.299,-0.132 0.319,-0.132C0.339,-0.132 0.354,-0.137 0.366,-0.149C0.378,-0.16 0.386,-0.176 0.392,-0.198C0.397,-0.22 0.4,-0.246 0.4,-0.278C0.4,-0.309 0.397,-0.336 0.392,-0.357C0.386,-0.378 0.378,-0.394 0.366,-0.405C0.354,-0.416 0.338,-0.421 0.318,-0.421C0.289,-0.421 0.268,-0.409 0.255,-0.385C0.242,-0.361 0.236,-0.325 0.236,-0.278Z" style="fill-rule:nonzero;"/>
            </g>
            <g transform="matrix(12,0,0,12,301.097,548.596)">
                <path d="M0.404,-0.563C0.465,-0.563 0.513,-0.538 0.548,-0.49C0.583,-0.441 0.6,-0.37 0.6,-0.278C0.6,-0.215 0.591,-0.162 0.574,-0.119C0.556,-0.077 0.532,-0.044 0.502,-0.023C0.471,-0.001 0.437,0.01 0.398,0.01C0.372,0.01 0.35,0.007 0.332,-0C0.314,-0.007 0.299,-0.015 0.287,-0.024C0.275,-0.034 0.265,-0.044 0.257,-0.054L0.251,-0.054C0.253,-0.042 0.254,-0.028 0.255,-0.013C0.256,0.001 0.257,0.019 0.257,0.038L0.257,0.24L0.066,0.24L0.066,-0.553L0.221,-0.553L0.248,-0.483L0.257,-0.483C0.266,-0.497 0.277,-0.51 0.29,-0.523C0.303,-0.535 0.319,-0.545 0.338,-0.552C0.356,-0.559 0.378,-0.563 0.404,-0.563ZM0.332,-0.413C0.313,-0.413 0.299,-0.409 0.288,-0.4C0.277,-0.391 0.27,-0.378 0.265,-0.36C0.26,-0.342 0.257,-0.32 0.257,-0.294L0.257,-0.279C0.257,-0.25 0.259,-0.225 0.264,-0.205C0.268,-0.185 0.276,-0.17 0.287,-0.159C0.298,-0.149 0.313,-0.144 0.333,-0.144C0.349,-0.144 0.362,-0.149 0.373,-0.158C0.384,-0.167 0.392,-0.181 0.397,-0.201C0.403,-0.221 0.406,-0.247 0.406,-0.28C0.406,-0.328 0.399,-0.363 0.387,-0.383C0.374,-0.403 0.356,-0.413 0.332,-0.413Z" style="fill-rule:nonzero;"/>
            </g>
            <g transform="matrix(12,0,0,12,308.814,548.596)">
                <path d="M0.315,-0.563C0.369,-0.563 0.415,-0.554 0.454,-0.535C0.493,-0.516 0.523,-0.488 0.544,-0.451C0.566,-0.413 0.576,-0.366 0.576,-0.31L0.576,-0.225L0.235,-0.225C0.236,-0.196 0.247,-0.172 0.267,-0.154C0.287,-0.135 0.317,-0.126 0.356,-0.126C0.39,-0.126 0.422,-0.129 0.451,-0.136C0.48,-0.143 0.509,-0.154 0.54,-0.168L0.54,-0.031C0.513,-0.017 0.484,-0.007 0.453,-0C0.421,0.007 0.381,0.01 0.333,0.01C0.277,0.01 0.228,-0 0.184,-0.02C0.14,-0.04 0.105,-0.071 0.08,-0.112C0.055,-0.154 0.042,-0.208 0.042,-0.273C0.042,-0.339 0.053,-0.394 0.076,-0.437C0.099,-0.48 0.131,-0.511 0.172,-0.532C0.213,-0.553 0.261,-0.563 0.315,-0.563ZM0.322,-0.433C0.299,-0.433 0.281,-0.426 0.265,-0.412C0.25,-0.398 0.241,-0.375 0.239,-0.345L0.403,-0.345C0.403,-0.361 0.399,-0.376 0.393,-0.39C0.387,-0.403 0.378,-0.414 0.366,-0.421C0.354,-0.429 0.339,-0.433 0.322,-0.433Z" style="fill-rule:nonzero;"/>
            </g>
            <g transform="matrix(12,0,0,12,316.232,548.596)">
                <path d="M0.412,-0.563C0.469,-0.563 0.516,-0.547 0.552,-0.515C0.588,-0.482 0.606,-0.431 0.606,-0.36L0.606,-0L0.415,-0L0.415,-0.302C0.415,-0.339 0.41,-0.366 0.399,-0.385C0.389,-0.404 0.372,-0.413 0.348,-0.413C0.312,-0.413 0.288,-0.398 0.275,-0.369C0.263,-0.339 0.257,-0.297 0.257,-0.242L0.257,-0L0.066,-0L0.066,-0.553L0.21,-0.553L0.236,-0.48L0.243,-0.48C0.255,-0.498 0.269,-0.513 0.285,-0.525C0.301,-0.537 0.32,-0.547 0.341,-0.553C0.362,-0.56 0.386,-0.563 0.412,-0.563Z" style="fill-rule:nonzero;"/>
            </g>
            <g transform="matrix(12,0,0,12,324.271,548.596)">
            </g>
        </g>
    </g>
</svg>
